<?xml version="1.0" encoding="utf-8"?>
<!-- Generator: Adobe Illustrator 16.0.3, SVG Export Plug-In . SVG Version: 6.00 Build 0)  -->
<!DOCTYPE svg PUBLIC "-//W3C//DTD SVG 1.1//EN" "http://www.w3.org/Graphics/SVG/1.1/DTD/svg11.dtd">
<svg version="1.1" id="Layer_1" xmlns="http://www.w3.org/2000/svg" xmlns:xlink="http://www.w3.org/1999/xlink" x="0px" y="0px"
	 width="200px" height="200px" viewBox="0 0 200 200" enable-background="new 0 0 200 200" xml:space="preserve">
<rect x="29.155" y="29.155" transform="matrix(0.7071 0.7071 -0.7071 0.7071 99.9088 -41.3843)" fill="#454545" width="141.509" height="141.51"/>
<g>
	<g>
		<path fill="#FFFFFF" d="M115.288,124.042c-2.983,0-5.516-2.417-10.235-7.212c-0.793-0.755-1.475-1.551-2.19-2.305
			c0.339-0.49,0.716-1.021,1.056-1.623l3.475-6.045c0.72,0.113,1.436,0.19,2.231,0.19c4.189,0,8.948-2.154,12.046-7.556
			c1.096-1.925,1.588-3.738,1.588-5.286c0-3.551-2.307-5.854-5.215-5.854c-2.149,0-4.721,1.511-6.494,4.606l-6.12,10.539
			c-2.303-1.209-3.922-3.736-2.926-6.872l7.782-22.66c-8.651-2.794-18.507,23.756-28.554,23.833
			c-6.044,0.037-7.668-5.778-4.572-11.028c3.402-5.781,9.331-5.894,11.181-1.4l3.135-1.208c-3.059-7.063-12.954-6.495-17.26,0.906
			c-4.646,8.009-0.68,16.128,7.517,16.128c5.398,0,9.705-4.381,13.635-9.594h5.287l-1.398,4.005
			c-1.777,4.924,1.644,8.57,4.854,10.192l-3.14,5.438c-0.185,0.305-0.337,0.604-0.523,0.869c-1.816-1.622-3.702-2.755-6.12-2.755
			c-3.55,0-5.365,2.49-5.365,4.948c0,2.451,1.815,4.908,5.553,4.908c1.926,0,4.192-0.756,6.232-2.457
			c4.227,4.345,8.912,10.388,14.465,10.388c5.173,0,7.438-3.211,7.438-3.211l-1.925-2.039
			C118.989,123.591,117.173,124.042,115.288,124.042z M114.491,94.621c1.175-2.001,2.459-2.87,3.552-2.87
			c1.477,0,2.154,0.981,2.154,2.416c0,3.664-4.456,10.272-10.573,10.272h-0.796L114.491,94.621z M96.763,89.714
			c2.908-4.002,5.629-8.233,8.459-11.142l-3.929,11.142H96.763z M94.136,116.187c-1.547,0-2.264-0.907-2.264-1.849
			c0-0.982,0.753-1.967,2.075-1.967c1.436,0,2.946,0.87,4.457,2.154C97.198,115.62,95.798,116.187,94.136,116.187z"/>
	</g>
</g>
</svg>
