<?xml version="1.0" encoding="utf-8"?>
<!-- Generator: Adobe Illustrator 16.0.3, SVG Export Plug-In . SVG Version: 6.00 Build 0)  -->
<!DOCTYPE svg PUBLIC "-//W3C//DTD SVG 1.1//EN" "http://www.w3.org/Graphics/SVG/1.1/DTD/svg11.dtd">
<svg version="1.1" id="Layer_1" xmlns="http://www.w3.org/2000/svg" xmlns:xlink="http://www.w3.org/1999/xlink" x="0px" y="0px"
	 width="50px" height="100px" viewBox="0 0 50 100" enable-background="new 0 0 50 100" xml:space="preserve">
<circle fill="none" stroke="#99CB99" stroke-width="2" stroke-miterlimit="10" cx="25.045" cy="25.045" r="18.783"/>
<line fill="none" stroke="#99CB99" stroke-width="2" stroke-miterlimit="10" x1="33.9" y1="16.19" x2="50.09" y2="0"/>
<line fill="none" stroke="#99CB99" stroke-width="2" stroke-miterlimit="10" x1="0" y1="50.09" x2="16.19" y2="33.899"/>
<line fill="none" stroke="#99CB99" stroke-width="2" stroke-miterlimit="10" x1="16.189" y1="16.189" x2="0" y2="0"/>
<line fill="none" stroke="#99CB99" stroke-width="2" stroke-miterlimit="10" x1="50.09" y1="50.09" x2="33.9" y2="33.899"/>
<path fill="none" stroke="#99CB99" stroke-width="2" stroke-miterlimit="10" d="M33.9,33.899c-2.268,2.266-5.396,3.668-8.855,3.668
	c-3.458,0-6.589-1.401-8.855-3.667"/>
<path fill="none" stroke="#99CB99" stroke-width="2" stroke-miterlimit="10" d="M16.19,33.9c-2.266-2.266-3.668-5.397-3.668-8.855
	c0-6.916,5.606-12.522,12.523-12.522c6.916,0,12.523,5.606,12.523,12.522c0,3.458-1.402,6.588-3.668,8.854"/>
<line fill="none" stroke="#99CB99" stroke-width="2" stroke-miterlimit="10" x1="0" y1="24.981" x2="50.09" y2="25.045"/>
<line fill="none" stroke="#99CB99" stroke-width="2" stroke-miterlimit="10" x1="25.045" y1="25.045" x2="25.09" y2="0"/>
<line fill="none" stroke="#99CB99" stroke-width="2" stroke-miterlimit="10" x1="25.045" y1="25.045" x2="25.045" y2="50.09"/>
<line fill="none" stroke="#99CB99" stroke-width="2" stroke-miterlimit="10" x1="0" y1="49.98" x2="50.09" y2="49.98"/>
<circle fill="none" stroke="#99CB99" stroke-width="2" stroke-miterlimit="10" cx="25.09" cy="75.135" r="18.783"/>
<line fill="none" stroke="#99CB99" stroke-width="2" stroke-miterlimit="10" x1="33.945" y1="66.28" x2="50.135" y2="50.09"/>
<line fill="none" stroke="#99CB99" stroke-width="2" stroke-miterlimit="10" x1="0.045" y1="100.18" x2="16.234" y2="83.989"/>
<line fill="none" stroke="#99CB99" stroke-width="2" stroke-miterlimit="10" x1="16.234" y1="66.279" x2="0.045" y2="50.09"/>
<line fill="none" stroke="#99CB99" stroke-width="2" stroke-miterlimit="10" x1="50.135" y1="100.18" x2="33.945" y2="83.989"/>
<path fill="none" stroke="#99CB99" stroke-width="2" stroke-miterlimit="10" d="M33.945,83.989
	c-2.268,2.266-5.396,3.668-8.855,3.668c-3.457,0-6.588-1.401-8.855-3.667"/>
<path fill="none" stroke="#99CB99" stroke-width="2" stroke-miterlimit="10" d="M16.235,83.99c-2.267-2.267-3.668-5.397-3.668-8.855
	c0-6.916,5.606-12.522,12.523-12.522c6.916,0,12.523,5.606,12.523,12.522c0,3.457-1.402,6.588-3.668,8.854"/>
<line fill="none" stroke="#99CB99" stroke-width="2" stroke-miterlimit="10" x1="0.045" y1="75.071" x2="50.135" y2="75.135"/>
<line fill="none" stroke="#99CB99" stroke-width="2" stroke-miterlimit="10" x1="25.09" y1="75.135" x2="25.135" y2="50.09"/>
<line fill="none" stroke="#99CB99" stroke-width="2" stroke-miterlimit="10" x1="25.09" y1="75.135" x2="25.09" y2="100.18"/>
<line fill="none" stroke="#99CB99" stroke-width="2" stroke-miterlimit="10" x1="0.09" y1="99.334" x2="50.18" y2="99.334"/>
</svg>
