<?xml version="1.0" encoding="utf-8"?>
<!-- Generator: Adobe Illustrator 16.0.3, SVG Export Plug-In . SVG Version: 6.00 Build 0)  -->
<!DOCTYPE svg PUBLIC "-//W3C//DTD SVG 1.1//EN" "http://www.w3.org/Graphics/SVG/1.1/DTD/svg11.dtd">
<svg version="1.1" xmlns="http://www.w3.org/2000/svg" xmlns:xlink="http://www.w3.org/1999/xlink" x="0px" y="0px" width="800px"
	 height="600px" viewBox="0 0 800 600" enable-background="new 0 0 800 600" xml:space="preserve">
<g id="Layer_1" display="none">
	<g display="inline">
		<path fill="#454545" d="M407.951,23.018c-4.372-6.604-11.526-6.604-15.898,0L26.298,575.485
			c-4.372,6.604-1.469,12.007,6.451,12.007h242.759c7.92,0,17.977-5.403,22.349-12.008l94.198-142.293
			c4.372-6.604,11.526-6.604,15.899-0.001l94.214,142.295c4.373,6.604,14.431,12.007,22.351,12.007h242.733
			c7.92,0,10.823-5.403,6.451-12.007L407.951,23.018z M718.665,545.916c4.372,6.604,1.469,12.007-6.451,12.007h-53.793
			c-7.92,0-17.978-5.403-22.349-12.008L484.711,317.259c-4.371-6.604-4.371-17.411,0.002-24.015l25.389-38.346
			c4.373-6.604,11.527-6.604,15.899,0L718.665,545.916z M392.053,76.583c4.372-6.604,11.526-6.604,15.898,0l25.396,38.36
			c4.372,6.604,4.372,17.411,0,24.015L163.932,545.916c-4.372,6.604-14.429,12.007-22.349,12.007H87.787
			c-7.92,0-10.823-5.403-6.451-12.007L392.053,76.583z M281.97,545.916c-4.372,6.604-14.429,12.007-22.349,12.007h-53.778
			c-7.92,0-10.823-5.403-6.451-12.007l251.686-380.174c4.372-6.604,11.526-6.604,15.898,0l25.395,38.358
			c4.372,6.604,4.372,17.41,0,24.014l-84.42,127.501c-4.372,6.604-7.95,12.007-7.95,12.006s-2.399,3.622-5.331,8.051
			s-5.705,8.618-6.163,9.31s-4.41,6.661-8.782,13.266L281.97,545.916z M425.684,406.409c-4.373-6.604-4.373-17.41,0-24.014
			l25.396-38.355c4.373-6.604,11.527-6.604,15.898,0.001l133.635,201.874c4.371,6.604,1.468,12.008-6.452,12.008h-53.757
			c-7.92,0-17.978-5.403-22.351-12.007L425.684,406.409z"/>
	</g>
</g>
<g id="Layer_2" display="none">
	<g display="inline">
		<polygon fill="#454545" points="493.061,20.83 399.997,206.946 306.945,20.83 		"/>
		<polygon fill="#454545" points="213.886,206.946 306.945,20.83 399.997,206.946 		"/>
		<polygon fill="#454545" points="399.997,206.946 306.945,393.063 213.886,206.946 		"/>
		<polygon fill="#454545" points="120.827,393.063 213.886,206.946 306.945,393.063 		"/>
		<polygon fill="#454545" points="306.945,393.063 213.886,579.17 120.827,393.063 		"/>
		<polygon fill="#454545" points="27.77,579.17 120.827,393.063 213.886,579.17 		"/>
		<polygon fill="#454545" points="213.886,579.17 306.945,393.063 399.997,579.17 		"/>
		<polygon fill="#454545" points="493.061,393.063 399.997,579.17 306.945,393.063 		"/>
		<polygon fill="#454545" points="679.166,393.063 586.113,579.17 493.061,393.063 		"/>
		<polygon fill="#454545" points="586.113,579.17 679.166,393.063 772.23,579.17 		"/>
		<polygon fill="#454545" points="493.061,393.063 586.113,206.946 679.166,393.063 		"/>
		<polygon fill="#454545" points="586.113,206.946 493.061,393.063 399.997,206.946 		"/>
	</g>
</g>
<g id="Layer_3" display="none">
	<path display="inline" fill="none" stroke="#333333" stroke-width="0" stroke-linecap="round" stroke-linejoin="round" d="M400,300
		"/>
	<path display="inline" fill="none" stroke="#333333" stroke-width="0" stroke-linecap="round" stroke-linejoin="round" d="M400,300
		"/>
	<path display="inline" fill="#333333" d="M492.879,424.936c-15.799,0-29.199-12.799-54.199-38.199c-4.199-4-7.8-8.199-11.6-12.199
		c1.8-2.6,3.8-5.4,5.6-8.6l18.4-32c3.799,0.6,7.6,1,11.799,1c22.201,0,47.4-11.4,63.799-40c5.801-10.199,8.4-19.799,8.4-28
		c0-18.799-12.199-30.999-27.6-30.999c-11.398,0-25,8-34.398,24.399l-32.4,55.799c-12.199-6.398-20.764-19.786-15.496-36.383
		l41.199-119.998c-45.799-14.8-97.999,125.798-151.198,126.198c-32,0.2-40.599-30.599-24.2-58.399c18-30.6,49.399-31.2,59.199-7.4
		l16.6-6.4c-16.2-37.399-68.599-34.399-91.399,4.8c-24.6,42.399-3.6,85.399,39.799,85.399c28.6,0,51.399-23.201,72.199-50.8h28
		l-7.4,21.2c-9.401,26.08,8.695,45.384,25.695,53.984l-16.6,28.799c-1,1.6-1.8,3.199-2.8,4.6c-9.601-8.6-19.6-14.6-32.4-14.6
		c-18.8,0-28.4,13.199-28.4,26.199s9.6,26,29.399,26c10.2,0,22.2-4,33-13c22.399,23,47.2,55,76.599,55c27.4,0,39.4-17,39.4-17
		l-10.199-10.801C512.479,422.535,502.879,424.936,492.879,424.936z M488.68,269.138c6.199-10.6,13-15.2,18.799-15.2
		c7.801,0,11.4,5.2,11.4,12.8c0,19.4-23.6,54.398-56,54.398h-4.199L488.68,269.138z M394.785,243.154
		c15.399-21.2,29.799-43.599,44.799-58.999l-20.8,58.999H394.785z M380.88,383.336c-8.2,0-12-4.799-12-9.799c0-5.201,4-10.4,11-10.4
		c7.6,0,15.6,4.6,23.6,11.4C397.08,380.336,389.68,383.336,380.88,383.336z"/>
</g>
<g id="Layer_4" display="none">
	
		<rect x="193.771" y="93.772" transform="matrix(0.7071 0.7071 -0.7071 0.7071 329.2885 -194.9746)" display="inline" fill="#333333" width="412.458" height="412.457"/>
	<g display="inline">
		<g>
			<path fill="#FFFFFF" d="M458.666,380.678c-11.339,0-20.967-9.192-38.907-27.418c-3.016-2.87-5.605-5.891-8.324-8.76
				c1.286-1.863,2.719-3.878,4.011-6.171l13.208-22.977c2.736,0.432,5.46,0.723,8.481,0.723c15.926,0,34.019-8.191,45.795-28.722
				c4.161-7.317,6.03-14.209,6.03-20.095c0-13.493-8.767-22.254-19.82-22.254c-8.174,0-17.947,5.746-24.688,17.51l-23.261,40.062
				c-8.754-4.594-14.908-14.205-11.127-26.12l29.583-86.138c-32.883-10.624-70.349,90.3-108.541,90.591
				c-22.975,0.146-29.146-21.963-17.381-41.918c12.935-21.969,35.473-22.405,42.505-5.32l11.916-4.587
				c-11.625-26.853-49.241-24.696-65.609,3.44c-17.661,30.438-2.585,61.308,28.569,61.308c20.525,0,36.895-16.654,51.831-36.464
				h20.101l-5.314,15.216c-6.752,18.719,6.248,32.582,18.45,38.747l-11.933,20.676c-0.705,1.153-1.281,2.294-1.991,3.301
				c-6.903-6.165-14.076-10.473-23.267-10.473c-13.493,0-20.391,9.466-20.391,18.809c0,9.32,6.898,18.662,21.107,18.662
				c7.322,0,15.938-2.875,23.691-9.342c16.072,16.514,33.879,39.483,54.985,39.483c19.665,0,28.28-12.2,28.28-12.2l-7.317-7.754
				C472.736,378.96,465.833,380.678,458.666,380.678z M455.641,268.836c4.464-7.608,9.342-10.909,13.499-10.909
				c5.61,0,8.189,3.737,8.189,9.186c0,13.93-16.939,39.049-40.194,39.049h-3.021L455.641,268.836z M388.246,250.186
				c11.054-15.217,21.398-31.294,32.156-42.349l-14.932,42.349H388.246z M378.26,350.815c-5.88,0-8.604-3.446-8.604-7.026
				c0-3.737,2.864-7.475,7.888-7.475c5.46,0,11.2,3.301,16.94,8.186C389.902,348.661,384.576,350.815,378.26,350.815z"/>
		</g>
	</g>
</g>
<g id="Layer_5" display="none">
	<polygon display="inline" fill="none" stroke="#454545" stroke-width="50" stroke-miterlimit="10" points="36,571.5 252,31.5 
		549,31.5 765,571.5 252,571.5 	"/>
	<path display="inline" fill="none" stroke="#454545" stroke-width="50" stroke-miterlimit="10" d="M288,72"/>
	
		<line display="inline" fill="none" stroke="#454545" stroke-width="50" stroke-miterlimit="10" x1="337.5" y1="571.5" x2="553.5" y2="31.5"/>
</g>
<g id="Layer_8">
	<path fill="none" stroke="#454545" stroke-width="50" stroke-miterlimit="10" d="M288,72"/>
	<path fill="#454545" d="M565.683,8H234.318L0.719,592H799.28L565.683,8z M541.766,163.614L681.118,512H401.816L541.766,163.614z
		 M288.481,88h197.447L315.603,512H118.882L288.481,88z"/>
</g>
<g id="Layer_7" display="none">
	<path display="inline" fill="#454545" d="M565.926,6.5H235.074l-236,590h802.852L565.926,6.5z M544.5,166.5l144,364.5h-288
		L544.5,166.5z M292.5,85.5h198L320.574,531H112.5L292.5,85.5z"/>
</g>
<g id="Layer_6">
</g>
</svg>
